<svg width="22" height="27" viewBox="0 0 22 27" fill="none" xmlns="http://www.w3.org/2000/svg">
<path d="M13 1H2.6C1.91044 1 1.24912 1.27393 0.761522 1.76152C0.273928 2.24912 0 2.91044 0 3.6V24.4C0 25.0896 0.273928 25.7509 0.761522 26.2385C1.24912 26.7261 1.91044 27 2.6 27H18.2C18.8896 27 19.5509 26.7261 20.0385 26.2385C20.5261 25.7509 20.8 25.0896 20.8 24.4V8.8L13 1Z" fill="url(#paint0_linear_123_522)"/>
<path fill-rule="evenodd" clip-rule="evenodd" d="M13.0001 0C13.5524 0 14.0001 0.447715 14.0001 1V7.8H20.8001C21.3524 7.8 21.8001 8.24771 21.8001 8.8C21.8001 9.35228 21.3524 9.8 20.8001 9.8H13.0001C12.4478 9.8 12.0001 9.35228 12.0001 8.8V1C12.0001 0.447715 12.4478 0 13.0001 0Z" fill="#3E4549"/>
<path fill-rule="evenodd" clip-rule="evenodd" d="M4.20007 15.2999C4.20007 14.7476 4.64779 14.2999 5.20007 14.2999H15.6001C16.1524 14.2999 16.6001 14.7476 16.6001 15.2999C16.6001 15.8522 16.1524 16.2999 15.6001 16.2999H5.20007C4.64779 16.2999 4.20007 15.8522 4.20007 15.2999Z" fill="url(#paint1_linear_123_522)"/>
<path fill-rule="evenodd" clip-rule="evenodd" d="M4.20007 20.5C4.20007 19.9477 4.64779 19.5 5.20007 19.5H15.6001C16.1524 19.5 16.6001 19.9477 16.6001 20.5C16.6001 21.0523 16.1524 21.5 15.6001 21.5H5.20007C4.64779 21.5 4.20007 21.0523 4.20007 20.5Z" fill="url(#paint2_linear_123_522)"/>
<path fill-rule="evenodd" clip-rule="evenodd" d="M4.20007 10.1C4.20007 9.54772 4.64779 9.10001 5.20007 9.10001H7.80007C8.35236 9.10001 8.80007 9.54772 8.80007 10.1C8.80007 10.6523 8.35236 11.1 7.80007 11.1H5.20007C4.64779 11.1 4.20007 10.6523 4.20007 10.1Z" fill="url(#paint3_linear_123_522)"/>
<defs>
<linearGradient id="paint0_linear_123_522" x1="10.4" y1="1" x2="10.4" y2="27" gradientUnits="userSpaceOnUse">
<stop stop-color="#A0A0A0"/>
<stop offset="1" stop-color="#747474"/>
</linearGradient>
<linearGradient id="paint1_linear_123_522" x1="10.4001" y1="15.2999" x2="10.4001" y2="16.2999" gradientUnits="userSpaceOnUse">
<stop stop-color="#3E454A"/>
<stop offset="1" stop-color="#747474"/>
</linearGradient>
<linearGradient id="paint2_linear_123_522" x1="10.4001" y1="20.5" x2="10.4001" y2="21.5" gradientUnits="userSpaceOnUse">
<stop stop-color="#3E454A"/>
<stop offset="1" stop-color="#747474"/>
</linearGradient>
<linearGradient id="paint3_linear_123_522" x1="6.50007" y1="10.1" x2="6.50007" y2="11.1" gradientUnits="userSpaceOnUse">
<stop stop-color="#3E454A"/>
<stop offset="1" stop-color="#747474"/>
</linearGradient>
</defs>
</svg>
