<svg width="23" height="24" viewBox="0 0 23 24" fill="none" xmlns="http://www.w3.org/2000/svg">
<path d="M7.86884 22.2652V18.6388C7.86884 17.713 8.62479 16.9626 9.5573 16.9626H12.9661C13.4139 16.9626 13.8433 17.1392 14.16 17.4535C14.4766 17.7679 14.6545 18.1942 14.6545 18.6388V22.2652C14.6517 22.6501 14.8037 23.0201 15.0769 23.2933C15.35 23.5664 15.7217 23.72 16.1094 23.72H18.435C19.5211 23.7228 20.5637 23.2964 21.3328 22.535C22.1018 21.7735 22.534 20.7396 22.534 19.6613V9.33013C22.534 8.45914 22.1451 7.63295 21.4721 7.07414L13.5607 0.801626C12.1846 -0.29816 10.2128 -0.262651 8.87767 0.885962L1.14688 7.07414C0.44207 7.61648 0.020817 8.44512 0 9.33013V19.6508C0 21.8982 1.83519 23.72 4.09902 23.72H6.37153C7.17675 23.72 7.83115 23.0751 7.83698 22.2758L7.86884 22.2652Z" fill="white"/>
</svg>
