<svg width="23" height="24" viewBox="0 0 23 24" fill="none" xmlns="http://www.w3.org/2000/svg">
<path d="M7.86884 22.2652V18.6387C7.86884 17.713 8.62479 16.9625 9.5573 16.9625H12.9661C13.4139 16.9625 13.8433 17.1391 14.16 17.4535C14.4766 17.7678 14.6545 18.1942 14.6545 18.6387V22.2652C14.6517 22.65 14.8037 23.0201 15.0769 23.2932C15.35 23.5664 15.7217 23.72 16.1094 23.72H18.435C19.5211 23.7228 20.5637 23.2964 21.3328 22.5349C22.1018 21.7735 22.534 20.7395 22.534 19.6613V9.33009C22.534 8.45909 22.1451 7.6329 21.4721 7.07409L13.5607 0.80158C12.1846 -0.298206 10.2128 -0.262696 8.87767 0.885916L1.14688 7.07409C0.44207 7.61643 0.020817 8.44507 0 9.33009V19.6507C0 21.8981 1.83519 23.72 4.09902 23.72H6.37153C7.17675 23.72 7.83115 23.0751 7.83698 22.2757L7.86884 22.2652Z" fill="url(#paint0_linear_123_976)"/>
<defs>
<linearGradient id="paint0_linear_123_976" x1="11.267" y1="0" x2="11.267" y2="23.72" gradientUnits="userSpaceOnUse">
<stop stop-color="#A0A0A0"/>
<stop offset="1" stop-color="#747474"/>
</linearGradient>
</defs>
</svg>
