<svg width="14" height="14" viewBox="0 0 14 14" fill="none" xmlns="http://www.w3.org/2000/svg">
<path d="M6.665 0C7.27683 0 7.86696 0.0781055 8.43539 0.234316C9.00383 0.390527 9.53321 0.616165 10.0235 0.91123C10.5139 1.2063 10.963 1.55343 11.3709 1.95264C11.7787 2.35184 12.128 2.80095 12.4188 3.29996C12.7095 3.79896 12.933 4.33051 13.0892 4.89461C13.2454 5.4587 13.3257 6.04883 13.33 6.665C13.33 7.27683 13.2519 7.86696 13.0957 8.43539C12.9395 9.00383 12.7138 9.53321 12.4188 10.0235C12.1237 10.5139 11.7766 10.963 11.3774 11.3709C10.9782 11.7787 10.5291 12.128 10.03 12.4188C9.53104 12.7095 8.99949 12.933 8.43539 13.0892C7.8713 13.2454 7.28117 13.3257 6.665 13.33C6.05317 13.33 5.46304 13.2519 4.89461 13.0957C4.32618 12.9395 3.79679 12.7138 3.30646 12.4188C2.81614 12.1237 2.36703 11.7766 1.95915 11.3774C1.55126 10.9782 1.20196 10.5291 0.91123 10.03C0.620505 9.53104 0.397036 8.99949 0.240825 8.43539C0.0846143 7.8713 0.00433919 7.28117 0 6.665C0 6.05317 0.0781055 5.46304 0.234316 4.89461C0.390527 4.32618 0.616165 3.79679 0.91123 3.30646C1.2063 2.81614 1.55343 2.36703 1.95264 1.95915C2.35184 1.55126 2.80095 1.20196 3.29996 0.91123C3.79896 0.620505 4.33051 0.397036 4.89461 0.240825C5.4587 0.0846143 6.04883 0.00433919 6.665 0ZM7.40049 6.665L9.6265 4.43899L8.89101 3.7035L6.665 5.92951L4.43899 3.7035L3.7035 4.43899L5.92951 6.665L3.7035 8.89101L4.43899 9.6265L6.665 7.40049L8.89101 9.6265L9.6265 8.89101L7.40049 6.665Z" fill="#AC3F3B"/>
</svg>
