<svg width="23" height="27" viewBox="0 0 23 27" fill="none" xmlns="http://www.w3.org/2000/svg">
<path d="M22.0909 11.0455C22.0909 19.6364 11.0455 27 11.0455 27C11.0455 27 0 19.6364 0 11.0455C4.3652e-08 8.11602 1.16371 5.30656 3.23514 3.23514C5.30656 1.16371 8.11602 0 11.0455 0C13.9749 0 16.7843 1.16371 18.8558 3.23514C20.9272 5.30656 22.0909 8.11602 22.0909 11.0455Z" fill="url(#paint0_linear_123_535)"/>
<path d="M11.025 15.65C13.4136 15.65 15.35 13.7136 15.35 11.325C15.35 8.93637 13.4136 7 11.025 7C8.63632 7 6.69995 8.93637 6.69995 11.325C6.69995 13.7136 8.63632 15.65 11.025 15.65Z" fill="#3E4549"/>
<defs>
<linearGradient id="paint0_linear_123_535" x1="11.0455" y1="0" x2="11.0455" y2="27" gradientUnits="userSpaceOnUse">
<stop stop-color="#A0A0A0"/>
<stop offset="1" stop-color="#747474"/>
</linearGradient>
</defs>
</svg>
